<?xml version="1.0" encoding="utf-8"?>
<!-- Generator: Adobe Illustrator 25.2.1, SVG Export Plug-In . SVG Version: 6.00 Build 0)  -->
<svg version="1.1" id="Ñëîé_1" xmlns="http://www.w3.org/2000/svg" xmlns:xlink="http://www.w3.org/1999/xlink" x="0px" y="0px"
	 viewBox="0 0 180 180" style="enable-background:new 0 0 180 180;" xml:space="preserve">
<style type="text/css">
	.st0{fill:#212121;}
</style>
<path class="st0" d="M-523.8-1000.2c-24.1,0-43.7,19.6-43.7,43.7c0,24.1,19.6,43.7,43.7,43.7c24.1,0,43.7-19.6,43.7-43.7
	C-480.2-980.6-499.8-1000.2-523.8-1000.2z"/>
<path class="st0" d="M-395.4-1000.2c-24.1,0-43.7,19.6-43.7,43.7c0,24.1,19.6,43.7,43.7,43.7s43.7-19.6,43.7-43.7
	C-351.7-980.6-371.3-1000.2-395.4-1000.2z"/>
<path class="st0" d="M-652.3-1000.2c-24.1,0-43.7,19.6-43.7,43.7c0,24.1,19.6,43.7,43.7,43.7c24.1,0,43.7-19.6,43.7-43.7
	C-608.6-980.6-628.2-1000.2-652.3-1000.2z"/>
<path class="st0" d="M-652.3-871.8c-24.1,0-43.7,19.6-43.7,43.7c0,24.1,19.6,43.7,43.7,43.7c24.1,0,43.7-19.6,43.7-43.7
	C-608.6-852.2-628.2-871.8-652.3-871.8z"/>
<path class="st0" d="M-523.8-871.8c-24.1,0-43.7,19.6-43.7,43.7c0,24.1,19.6,43.7,43.7,43.7c24.1,0,43.7-19.6,43.7-43.7
	C-480.2-852.2-499.8-871.8-523.8-871.8z"/>
<path class="st0" d="M-523.8-743.3c-24.1,0-43.7,19.6-43.7,43.7c0,24.1,19.6,43.7,43.7,43.7c24.1,0,43.7-19.6,43.7-43.7
	C-480.2-723.7-499.8-743.3-523.8-743.3z"/>
<path class="st0" d="M-523.8-614.9c-24.1,0-43.7,19.6-43.7,43.7c0,24.1,19.6,43.7,43.7,43.7c24.1,0,43.7-19.6,43.7-43.7
	C-480.2-595.3-499.8-614.9-523.8-614.9z"/>
<path class="st0" d="M-395.4-743.3c-24.1,0-43.7,19.6-43.7,43.7c0,24.1,19.6,43.7,43.7,43.7s43.7-19.6,43.7-43.7
	C-351.7-723.7-371.3-743.3-395.4-743.3z"/>
<path class="st0" d="M-652.3-743.3c-24.1,0-43.7,19.6-43.7,43.7c0,24.1,19.6,43.7,43.7,43.7c24.1,0,43.7-19.6,43.7-43.7
	C-608.6-723.7-628.2-743.3-652.3-743.3z"/>
<path class="st0" d="M-395.4-871.8c-24.1,0-43.7,19.6-43.7,43.7c0,24.1,19.6,43.7,43.7,43.7s43.7-19.6,43.7-43.7
	C-351.7-852.2-371.3-871.8-395.4-871.8z"/>
<g>
	<path class="st0" d="M45,29.7c-8.4,0-15.3,6.9-15.3,15.3c0,8.4,6.9,15.3,15.3,15.3c8.4,0,15.3-6.9,15.3-15.3
		C60.3,36.6,53.4,29.7,45,29.7z"/>
	<path class="st0" d="M90,29.7c-8.4,0-15.3,6.9-15.3,15.3c0,8.4,6.9,15.3,15.3,15.3c8.4,0,15.3-6.9,15.3-15.3
		C105.3,36.6,98.4,29.7,90,29.7z"/>
	<path class="st0" d="M90,74.7c-8.4,0-15.3,6.9-15.3,15.3c0,8.4,6.9,15.3,15.3,15.3c8.4,0,15.3-6.9,15.3-15.3
		C105.3,81.6,98.4,74.7,90,74.7z"/>
	<path class="st0" d="M90,119.7c-8.4,0-15.3,6.9-15.3,15.3c0,8.4,6.9,15.3,15.3,15.3c8.4,0,15.3-6.9,15.3-15.3
		C105.3,126.6,98.4,119.7,90,119.7z"/>
	<path class="st0" d="M135,74.7c-8.4,0-15.3,6.9-15.3,15.3c0,8.4,6.9,15.3,15.3,15.3s15.3-6.9,15.3-15.3
		C150.3,81.6,143.4,74.7,135,74.7z"/>
	<path class="st0" d="M45,74.7c-8.4,0-15.3,6.9-15.3,15.3c0,8.4,6.9,15.3,15.3,15.3c8.4,0,15.3-6.9,15.3-15.3
		C60.3,81.6,53.4,74.7,45,74.7z"/>
	<path class="st0" d="M135,29.7c-8.4,0-15.3,6.9-15.3,15.3c0,8.4,6.9,15.3,15.3,15.3s15.3-6.9,15.3-15.3
		C150.3,36.6,143.4,29.7,135,29.7z"/>
</g>
</svg>
